<svg width="89" height="20" viewBox="0 0 89 20" fill="none" xmlns="http://www.w3.org/2000/svg">
<path d="M78.9551 13.7598L81.6895 4.43359H85.2246L80.9766 16.5723C80.8854 16.8392 80.765 17.1257 80.6152 17.4316C80.4655 17.7441 80.2604 18.0404 80 18.3203C79.7396 18.6003 79.4043 18.8281 78.9941 19.0039C78.5905 19.1797 78.0892 19.2676 77.4902 19.2676C77.1712 19.2676 76.9368 19.2513 76.7871 19.2188C76.6439 19.1927 76.4225 19.1439 76.123 19.0723V16.7188C76.2077 16.7188 76.2793 16.7188 76.3379 16.7188C76.403 16.7188 76.4746 16.7188 76.5527 16.7188C76.9043 16.7188 77.1842 16.6829 77.3926 16.6113C77.6074 16.5397 77.7702 16.4355 77.8809 16.2988C77.998 16.1621 78.0892 15.9961 78.1543 15.8008L78.9551 13.7598ZM78.2617 4.43359L80.3418 11.8262L80.7031 15.3125H78.4961L74.7363 4.43359H78.2617Z" fill="white"/>
<path d="M67.6562 6.68945V15H64.3652V4.43359H67.4512L67.6562 6.68945ZM67.2656 9.35547L66.4941 9.375C66.4941 8.56771 66.5918 7.84831 66.7871 7.2168C66.9824 6.57878 67.2591 6.03841 67.6172 5.5957C67.9753 5.15299 68.4017 4.81771 68.8965 4.58984C69.3978 4.35547 69.9544 4.23828 70.5664 4.23828C71.0547 4.23828 71.5007 4.3099 71.9043 4.45312C72.3145 4.59635 72.666 4.82747 72.959 5.14648C73.2585 5.46549 73.4863 5.88867 73.6426 6.41602C73.8053 6.93685 73.8867 7.58138 73.8867 8.34961V15H70.5762V8.33984C70.5762 7.91667 70.5176 7.5944 70.4004 7.37305C70.2832 7.14518 70.1139 6.98893 69.8926 6.9043C69.6712 6.81966 69.401 6.77734 69.082 6.77734C68.7435 6.77734 68.457 6.84245 68.2227 6.97266C67.9883 7.10286 67.7995 7.28516 67.6562 7.51953C67.5195 7.7474 67.4186 8.01758 67.3535 8.33008C67.2949 8.64258 67.2656 8.98438 67.2656 9.35547Z" fill="white"/>
<path d="M59.2871 12.3438V7.98828C59.2871 7.6888 59.2448 7.43164 59.1602 7.2168C59.0755 7.00195 58.9421 6.83594 58.7598 6.71875C58.5775 6.59505 58.3333 6.5332 58.0273 6.5332C57.7799 6.5332 57.5684 6.57552 57.3926 6.66016C57.2168 6.74479 57.0833 6.87174 56.9922 7.04102C56.901 7.21029 56.8555 7.42513 56.8555 7.68555H53.5645C53.5645 7.19727 53.6719 6.74479 53.8867 6.32812C54.1081 5.90495 54.4206 5.53711 54.8242 5.22461C55.2344 4.91211 55.7227 4.67122 56.2891 4.50195C56.862 4.32617 57.5 4.23828 58.2031 4.23828C59.043 4.23828 59.7917 4.37826 60.4492 4.6582C61.1133 4.93815 61.6374 5.35807 62.0215 5.91797C62.4056 6.47135 62.5977 7.16797 62.5977 8.00781V12.334C62.5977 13.0241 62.6367 13.5482 62.7148 13.9062C62.793 14.2578 62.9036 14.5671 63.0469 14.834V15H59.7461C59.5898 14.6745 59.4727 14.2773 59.3945 13.8086C59.3229 13.3333 59.2871 12.8451 59.2871 12.3438ZM59.6875 8.54492L59.707 10.3027H58.252C57.946 10.3027 57.6855 10.3451 57.4707 10.4297C57.2624 10.5143 57.0931 10.6315 56.9629 10.7812C56.8392 10.9245 56.748 11.0872 56.6895 11.2695C56.6374 11.4518 56.6113 11.6439 56.6113 11.8457C56.6113 12.041 56.6569 12.2168 56.748 12.373C56.8457 12.5228 56.9759 12.64 57.1387 12.7246C57.3014 12.8092 57.4837 12.8516 57.6855 12.8516C58.0501 12.8516 58.3594 12.7832 58.6133 12.6465C58.8737 12.5033 59.0723 12.3307 59.209 12.1289C59.3457 11.9271 59.4141 11.7383 59.4141 11.5625L60.1367 12.9102C60.0065 13.1706 59.8568 13.4342 59.6875 13.7012C59.5247 13.9681 59.3197 14.2155 59.0723 14.4434C58.8314 14.6647 58.5352 14.847 58.1836 14.9902C57.832 15.127 57.4056 15.1953 56.9043 15.1953C56.2533 15.1953 55.6543 15.0618 55.1074 14.7949C54.5671 14.528 54.1341 14.1569 53.8086 13.6816C53.4831 13.1999 53.3203 12.6465 53.3203 12.0215C53.3203 11.4746 53.418 10.9863 53.6133 10.5566C53.8151 10.127 54.1178 9.76237 54.5215 9.46289C54.9251 9.16341 55.4395 8.93555 56.0645 8.7793C56.6895 8.62305 57.4251 8.54492 58.2715 8.54492H59.6875Z" fill="white"/>
<path d="M45.8496 6.46484V19.0625H42.5586V4.43359H45.625L45.8496 6.46484ZM52.334 9.58984V9.79492C52.334 10.5632 52.2461 11.276 52.0703 11.9336C51.8945 12.5911 51.6341 13.1641 51.2891 13.6523C50.944 14.1406 50.5143 14.5215 50 14.7949C49.4922 15.0618 48.903 15.1953 48.2324 15.1953C47.6009 15.1953 47.0573 15.0553 46.6016 14.7754C46.1458 14.4954 45.765 14.1081 45.459 13.6133C45.153 13.1185 44.9056 12.5521 44.7168 11.9141C44.528 11.276 44.3783 10.6022 44.2676 9.89258V9.62891C44.3783 8.86719 44.528 8.16081 44.7168 7.50977C44.9056 6.85221 45.153 6.2793 45.459 5.79102C45.765 5.30273 46.1426 4.92188 46.5918 4.64844C47.0475 4.375 47.5911 4.23828 48.2227 4.23828C48.8932 4.23828 49.4824 4.36523 49.9902 4.61914C50.5046 4.87305 50.9342 5.23763 51.2793 5.71289C51.6309 6.18164 51.8945 6.74479 52.0703 7.40234C52.2461 8.0599 52.334 8.78906 52.334 9.58984ZM49.043 9.79492V9.58984C49.043 9.17969 49.0137 8.80534 48.9551 8.4668C48.8965 8.12174 48.8021 7.82227 48.6719 7.56836C48.5482 7.31445 48.3822 7.11914 48.1738 6.98242C47.9655 6.8457 47.7083 6.77734 47.4023 6.77734C47.0508 6.77734 46.7546 6.83268 46.5137 6.94336C46.2793 7.04753 46.0905 7.21029 45.9473 7.43164C45.8105 7.64648 45.7129 7.91667 45.6543 8.24219C45.6022 8.5612 45.5794 8.93555 45.5859 9.36523V10.166C45.5729 10.6608 45.6217 11.097 45.7324 11.4746C45.8431 11.8457 46.0352 12.1354 46.3086 12.3438C46.582 12.5521 46.9531 12.6562 47.4219 12.6562C47.7344 12.6562 47.9948 12.5846 48.2031 12.4414C48.4115 12.2917 48.5775 12.0866 48.7012 11.8262C48.8249 11.5592 48.9128 11.2533 48.9648 10.9082C49.0169 10.5632 49.043 10.1921 49.043 9.79492Z" fill="white"/>
<path d="M28.623 6.66992V15H25.332V4.43359H28.418L28.623 6.66992ZM28.2227 9.35547L27.4707 9.375C27.4707 8.63281 27.5586 7.94922 27.7344 7.32422C27.9102 6.69922 28.1706 6.1556 28.5156 5.69336C28.8607 5.23112 29.2839 4.87305 29.7852 4.61914C30.293 4.36523 30.8789 4.23828 31.543 4.23828C32.0052 4.23828 32.4251 4.3099 32.8027 4.45312C33.1803 4.58984 33.5059 4.80794 33.7793 5.10742C34.0527 5.40039 34.2611 5.78451 34.4043 6.25977C34.554 6.72852 34.6289 7.29167 34.6289 7.94922V15H31.3379V8.36914C31.3379 7.91992 31.2858 7.58138 31.1816 7.35352C31.084 7.12565 30.9408 6.97266 30.752 6.89453C30.5632 6.81641 30.332 6.77734 30.0586 6.77734C29.7721 6.77734 29.515 6.84245 29.2871 6.97266C29.0592 7.10286 28.8639 7.28516 28.7012 7.51953C28.5449 7.7474 28.4245 8.01758 28.3398 8.33008C28.2617 8.64258 28.2227 8.98438 28.2227 9.35547ZM34.2578 9.35547L33.3398 9.375C33.3398 8.63281 33.4212 7.94922 33.584 7.32422C33.7533 6.69922 34.0039 6.1556 34.3359 5.69336C34.6745 5.23112 35.0944 4.87305 35.5957 4.61914C36.097 4.36523 36.6797 4.23828 37.3438 4.23828C37.8255 4.23828 38.2682 4.3099 38.6719 4.45312C39.0755 4.59635 39.4238 4.82747 39.7168 5.14648C40.0098 5.46549 40.2376 5.88867 40.4004 6.41602C40.5632 6.93685 40.6445 7.58138 40.6445 8.34961V15H37.3438V8.34961C37.3438 7.91341 37.2917 7.58464 37.1875 7.36328C37.0898 7.13542 36.9466 6.98242 36.7578 6.9043C36.569 6.81966 36.3444 6.77734 36.084 6.77734C35.7715 6.77734 35.5013 6.84245 35.2734 6.97266C35.0456 7.10286 34.8535 7.28516 34.6973 7.51953C34.5475 7.7474 34.4368 8.01758 34.3652 8.33008C34.2936 8.64258 34.2578 8.98438 34.2578 9.35547Z" fill="white"/>
<path d="M13.6426 9.82422V9.61914C13.6426 8.8444 13.7533 8.13151 13.9746 7.48047C14.196 6.82292 14.5215 6.25326 14.9512 5.77148C15.3809 5.28971 15.9115 4.91536 16.543 4.64844C17.1745 4.375 17.9036 4.23828 18.7305 4.23828C19.5638 4.23828 20.2962 4.375 20.9277 4.64844C21.5658 4.91536 22.0996 5.28971 22.5293 5.77148C22.959 6.25326 23.2845 6.82292 23.5059 7.48047C23.7272 8.13151 23.8379 8.8444 23.8379 9.61914V9.82422C23.8379 10.5924 23.7272 11.3053 23.5059 11.9629C23.2845 12.6139 22.959 13.1836 22.5293 13.6719C22.0996 14.1536 21.569 14.528 20.9375 14.7949C20.306 15.0618 19.5768 15.1953 18.75 15.1953C17.9232 15.1953 17.1908 15.0618 16.5527 14.7949C15.9147 14.528 15.3809 14.1536 14.9512 13.6719C14.5215 13.1836 14.196 12.6139 13.9746 11.9629C13.7533 11.3053 13.6426 10.5924 13.6426 9.82422ZM16.9336 9.61914V9.82422C16.9336 10.2214 16.9629 10.5924 17.0215 10.9375C17.0801 11.2826 17.1777 11.5853 17.3145 11.8457C17.4512 12.0996 17.6367 12.2982 17.8711 12.4414C18.1055 12.5846 18.3984 12.6562 18.75 12.6562C19.0951 12.6562 19.3815 12.5846 19.6094 12.4414C19.8438 12.2982 20.0293 12.0996 20.166 11.8457C20.3027 11.5853 20.4004 11.2826 20.459 10.9375C20.5176 10.5924 20.5469 10.2214 20.5469 9.82422V9.61914C20.5469 9.23503 20.5176 8.8737 20.459 8.53516C20.4004 8.1901 20.3027 7.88737 20.166 7.62695C20.0293 7.36003 19.8438 7.15169 19.6094 7.00195C19.375 6.85221 19.082 6.77734 18.7305 6.77734C18.3854 6.77734 18.0957 6.85221 17.8613 7.00195C17.6335 7.15169 17.4512 7.36003 17.3145 7.62695C17.1777 7.88737 17.0801 8.1901 17.0215 8.53516C16.9629 8.8737 16.9336 9.23503 16.9336 9.61914Z" fill="white"/>
<path d="M9.16992 10.1855H12.5879C12.5423 11.1751 12.2754 12.0475 11.7871 12.8027C11.2988 13.5579 10.6217 14.1471 9.75586 14.5703C8.89648 14.987 7.88086 15.1953 6.70898 15.1953C5.75846 15.1953 4.90885 15.0358 4.16016 14.7168C3.41797 14.3978 2.78646 13.9388 2.26562 13.3398C1.7513 12.7409 1.35742 12.015 1.08398 11.1621C0.817057 10.3092 0.683594 9.34896 0.683594 8.28125V7.50977C0.683594 6.44206 0.823568 5.48177 1.10352 4.62891C1.38997 3.76953 1.79362 3.04036 2.31445 2.44141C2.8418 1.83594 3.47331 1.3737 4.20898 1.05469C4.94466 0.735677 5.76172 0.576172 6.66016 0.576172C7.89714 0.576172 8.94206 0.797526 9.79492 1.24023C10.6478 1.68294 11.3086 2.29167 11.7773 3.06641C12.2461 3.83464 12.5228 4.71029 12.6074 5.69336H9.18945C9.17643 5.15951 9.08529 4.71354 8.91602 4.35547C8.74674 3.99089 8.47982 3.71745 8.11523 3.53516C7.75065 3.35286 7.26562 3.26172 6.66016 3.26172C6.23698 3.26172 5.86914 3.33984 5.55664 3.49609C5.24414 3.65234 4.98372 3.89974 4.77539 4.23828C4.56706 4.57682 4.41081 5.01628 4.30664 5.55664C4.20898 6.09049 4.16016 6.73503 4.16016 7.49023V8.28125C4.16016 9.03646 4.20573 9.68099 4.29688 10.2148C4.38802 10.7487 4.53451 11.1849 4.73633 11.5234C4.93815 11.862 5.19857 12.1126 5.51758 12.2754C5.8431 12.4316 6.24023 12.5098 6.70898 12.5098C7.22982 12.5098 7.66927 12.4284 8.02734 12.2656C8.38542 12.0964 8.66211 11.8424 8.85742 11.5039C9.05273 11.1589 9.1569 10.7194 9.16992 10.1855Z" fill="white"/>
<circle cx="87" cy="15" r="2" fill="#EE9645"/>
</svg>
